<svg t="1699371846667" class="icon" viewBox="0 0 1425 1024" version="1.1" xmlns="http://www.w3.org/2000/svg" p-id="22165" width="200" height="200"><path d="M776.383799 475.505388c-7.013699 7.013699-21.041096 11.689498-32.730594 11.689498-4.675799-2.3379-11.689498-7.013699-18.703196-9.351598h-7.013699c-4.675799 0-9.351598 2.3379-11.689497 4.675799l-7.013699 7.013698c-2.3379 4.675799-2.3379 9.351598 0 14.027398 2.3379 4.675799 7.013699 9.351598 11.689498 11.689497 2.3379 0 4.675799 2.3379 7.013698 2.3379 11.689498 7.013699 23.378995 18.703196 30.392694 30.392694 11.689498 25.716895 7.013699 32.730594-11.689497 53.771689l-7.013699 7.013699c-4.675799 7.013699-4.675799 14.027397-2.337899 23.378996 2.3379 7.013699 9.351598 11.689498 21.041095 11.689497h11.689498c2.3379-2.3379 7.013699-4.675799 9.351598-7.013698 35.068493-35.068493 44.420091-65.461187 21.041096-112.219178-2.3379-4.675799-4.675799-7.013699-7.013698-9.351599 9.351598-4.675799 21.041096-9.351598 28.054794-18.703196 14.027397-14.027397 25.716895-35.068493 30.392694-56.109589 2.3379-9.351598-4.675799-18.703196-14.027397-21.041096h-2.3379c-9.351598 0-18.703196 7.013699-18.703196 14.027397-11.689498 23.378995-21.041096 35.068493-30.392694 42.082192z m306.26484 187.031964c30.392694 0 53.771689-23.378995 53.77169-53.77169s-23.378995-53.771689-53.77169-53.771689c-25.716895 0-44.420091 18.703196-51.43379 39.744292h-67.799087v28.054794h67.799087c7.013699 23.378995 25.716895 39.744292 51.43379 39.744293z m42.082192-261.844749h65.461187c4.675799 23.378995 28.054795 39.744292 51.43379 39.744292 30.392694 0 53.771689-23.378995 53.77169-53.77169s-23.378995-53.771689-53.77169-53.771689c-25.716895 0-44.420091 18.703196-51.43379 39.744292h-79.488584l-67.799087 105.20548h-81.826484v28.054794h95.853881l67.799087-105.205479z m-42.082192-74.812786c30.392694 0 53.771689-23.378995 53.77169-53.771689s-23.378995-53.771689-53.77169-53.77169c-25.716895 0-44.420091 18.703196-51.43379 39.744293h-67.799087v28.054794h67.799087c7.013699 25.716895 25.716895 39.744292 51.43379 39.744292z m65.461187 474.593608c-25.716895 0-44.420091 18.703196-51.43379 39.744292h-135.598173v28.054794h135.598173c4.675799 23.378995 28.054795 39.744292 51.43379 39.744293 30.392694 0 53.771689-23.378995 53.77169-53.77169 0-30.392694-23.378995-53.771689-53.77169-53.771689z m114.557078-243.141553c-30.392694 0-53.771689 23.378995-53.771689 53.77169 0 14.027397 4.675799 28.054795 14.027397 37.406392l-39.744292 63.123288h-219.762558v25.716895h236.127854l51.43379-74.812785c4.675799 0 9.351598 2.3379 14.027398 2.337899 30.392694 0 53.771689-23.378995 53.771689-53.771689-2.3379-30.392694-28.054795-53.771689-56.109589-53.77169z m-474.593607-425.497717h-18.703197c-56.109589 7.013699-105.205479 56.109589-112.219178 114.557078-28.054795 2.3379-51.43379 9.351598-72.474886 28.054794-49.09589 35.068493-65.461187 100.52968-44.420091 156.63927 2.3379 4.675799 2.3379 7.013699 4.675799 11.689498-2.3379 0-2.3379 2.3379-4.675799 2.337899-49.09589 35.068493-65.461187 74.812785-39.744292 130.922374 9.351598 25.716895 28.054795 44.420091 51.43379 60.785389-16.365297 42.082192-14.027397 86.502283 11.689498 126.246575 21.041096 30.392694 53.771689 53.771689 91.178082 58.447489 4.675799 30.392694 18.703196 58.447489 37.406392 79.488584 21.041096 21.041096 63.123288 35.068493 102.86758 35.068493 18.703196 0 32.730594-2.3379 44.420092-7.013698 42.082192-18.703196 65.461187-58.447489 67.799086-88.840183v-617.20548c-11.689498-56.109589-60.785388-91.178082-119.232876-91.178082z m81.826484 196.383562c-21.041096-7.013699-35.068493-23.378995-44.420092-39.744292-4.675799-7.013699-11.689498-11.689498-21.041095-11.689498-4.675799 0-7.013699 0-11.689498 2.337899-9.351598 4.675799-14.027397 21.041096-9.351598 30.392695 11.689498 28.054795 35.068493 49.09589 63.123287 63.123287 7.013699 4.675799 18.703196 7.013699 25.716895 7.013699v451.214612c-2.3379 21.041096-25.716895 37.406393-44.420091 44.420091-9.351598 4.675799-21.041096 4.675799-32.730594 4.675799-25.716895 0-53.771689-9.351598-67.799086-25.716895-11.689498-11.689498-21.041096-28.054795-21.041096-44.420091-2.3379-11.689498 0-25.716895 2.337899-35.068493 0-2.3379 2.3379-7.013699 4.675799-9.351598 9.351598-21.041096 25.716895-35.068493 44.420092-42.082192 4.675799-2.3379 9.351598-7.013699 11.689497-11.689498 2.3379-4.675799 2.3379-11.689498 0-18.703196-4.675799-7.013699-11.689498-14.027397-23.378995-14.027398-2.3379 0-4.675799 0-7.013699 2.3379-28.054795 9.351598-53.771689 30.392694-67.799086 58.447489-4.675799 9.351598-9.351598 23.378995-11.689498 32.730593-21.041096-7.013699-39.744292-23.378995-53.77169-42.082192-18.703196-30.392694-14.027397-67.799087 4.675799-93.515981 11.689498-18.703196 32.730594-28.054795 53.77169-32.730594 7.013699 0 11.689498-4.675799 14.027397-9.351598 2.3379-4.675799 4.675799-11.689498 2.3379-18.703197-2.3379-9.351598-11.689498-21.041096-23.378996-21.041095h-2.337899c-30.392694 4.675799-56.109589 18.703196-74.812786 39.744292-14.027397-9.351598-28.054795-25.716895-35.068493-42.082192-9.351598-32.730594 0-42.082192 25.716895-65.461187 4.675799 0 7.013699-2.3379 9.351598-4.675799 7.013699 7.013699 14.027397 11.689498 25.716895 18.703196 2.3379 2.3379 7.013699 2.3379 9.351599 2.3379 7.013699 0 14.027397-4.675799 21.041095-11.689498 7.013699-9.351598 2.3379-25.716895-7.013698-32.730594l-2.3379-2.337899c-11.689498-7.013699-23.378995-14.027397-30.392694-28.054795-4.675799-7.013699-7.013699-11.689498-9.351598-18.703196-9.351598-32.730594 0-67.799087 25.716895-91.178082 9.351598-16.365297 28.054795-23.378995 44.420091-25.716895 2.3379 14.027397 7.013699 28.054795 14.027398 39.744292 7.013699 9.351598 14.027397 11.689498 21.041095 11.689498 4.675799 0 7.013699 0 11.689498-2.3379s9.351598-7.013699 11.689498-14.027397c2.3379-7.013699 0-11.689498-2.3379-18.703196 0-4.675799-2.3379-7.013699-4.675799-14.027398-4.675799-11.689498-9.351598-23.378995-4.675799-37.406392 0-2.3379 0-4.675799 2.3379-9.351599 7.013699-32.730594 32.730594-60.785388 67.799086-65.461187 4.675799-2.3379 9.351598-2.3379 14.027398-2.337899 37.406393 0 72.474886 25.716895 84.164383 63.123287v86.502283h-2.337899z" fill="#1677FF" p-id="22166"></path><path d="M806.37905 934.832511c-21.041096 0-46.757991-4.675799-77.150685-18.703196-49.09589-23.378995-74.812785-70.136986-70.136986-123.908676 4.675799-56.109589 39.744292-102.86758 88.840183-119.232876 9.351598-2.3379 18.703196 2.3379 21.041095 11.689497 2.3379 9.351598-2.3379 18.703196-11.689497 21.041096-35.068493 11.689498-60.785388 46.757991-65.461187 88.840183-2.3379 18.703196 0 65.461187 51.433789 88.840182 39.744292 18.703196 77.150685 21.041096 105.20548 4.6758 23.378995-14.027397 35.068493-39.744292 35.068493-53.77169v-596.164384c0-14.027397-16.365297-42.082192-46.757991-60.785388-21.041096-14.027397-53.771689-23.378995-93.515982-4.675799-32.730594 16.365297-53.771689 44.420091-53.771689 77.150685-2.3379 25.716895 7.013699 49.09589 25.716895 63.123288 7.013699 4.675799 9.351598 16.365297 4.675799 23.378995-4.675799 7.013699-16.365297 9.351598-23.378995 4.675799-30.392694-18.703196-46.757991-56.109589-42.082192-93.515981 2.3379-44.420091 30.392694-84.164384 77.150685-107.543379 42.082192-21.041096 86.502283-18.703196 128.584475 7.013698 35.068493 23.378995 63.123288 60.785388 63.123287 91.178082v596.164384c0 25.716895-18.703196 60.785388-51.43379 81.826484-16.365297 11.689498-37.406393 18.703196-65.461187 18.703196z" fill="#1677FF" p-id="22167"></path><path d="M624.022886 506.996895c-2.3379 0-7.013699 0-9.351598-2.3379-67.799087-37.406393-100.52968-119.232877-70.136987-184.694063 18.703196-42.082192 60.785388-63.123288 126.246576-63.123288 9.351598 0 18.703196 7.013699 18.703196 18.703196s-9.351598 16.365297-18.703196 16.365297c-51.43379 0-81.826484 14.027397-93.515982 42.082192-18.703196 42.082192-2.3379 105.205479 56.109589 140.273972 9.351598 4.675799 11.689498 16.365297 7.013699 23.378996-4.675799 4.675799-9.351598 9.351598-16.365297 9.351598zM694.159872 810.923836c-65.461187 0-109.881279-21.041096-128.584475-65.461188-28.054795-65.461187 2.3379-147.287671 72.474886-187.031963 9.351598-4.675799 18.703196-2.3379 23.378995 7.013699 4.675799 9.351598 2.3379 18.703196-7.013698 23.378995-60.785388 32.730594-77.150685 98.191781-58.447489 142.611872 16.365297 30.392694 46.757991 44.420091 98.191781 44.420091 9.351598 0 16.365297 7.013699 16.365297 18.703197s-7.013699 16.365297-16.365297 16.365297z" fill="#1677FF" p-id="22168"></path><path d="M581.940694 649.608767c-2.3379 0-4.675799 0-7.013699-2.337899-53.771689-25.716895-81.826484-63.123288-81.826484-112.219179 0-35.068493 14.027397-79.488584 84.164384-95.853881 9.351598-2.3379 18.703196 4.675799 21.041096 14.027397s-4.675799 18.703196-14.027397 21.041096c-51.43379 11.689498-56.109589 39.744292-56.10959 60.785388 0 35.068493 21.041096 60.785388 60.785389 79.488585 9.351598 4.675799 11.689498 14.027397 7.013698 23.378995 0 9.351598-7.013699 11.689498-14.027397 11.689498zM768.972657 649.608767c-4.675799 0-7.013699 0-9.351598-2.337899-7.013699-4.675799-9.351598-16.365297-4.675799-23.378996 14.027397-21.041096 21.041096-37.406393 16.365297-53.771689-4.675799-23.378995-30.392694-44.420091-72.474886-65.461188-9.351598-4.675799-11.689498-14.027397-9.351598-23.378995 4.675799-9.351598 14.027397-11.689498 23.378995-9.351598 51.43379 25.716895 81.826484 53.771689 91.178083 86.502283 7.013699 25.716895 0 53.771689-21.041096 84.164383-4.675799 4.675799-9.351598 7.013699-14.027398 7.013699z" fill="#1677FF" p-id="22169"></path><path d="M747.931562 542.065388c-7.013699 0-14.027397-4.675799-16.365297-11.689498-4.675799-9.351598 0-18.703196 9.351598-23.378995 84.164384-32.730594 70.136986-65.461187 67.799087-77.150685-2.3379-9.351598 0-18.703196 9.351598-23.378995 9.351598-2.3379 18.703196 0 23.378995 9.351598 14.027397 35.068493 9.351598 84.164384-86.502283 121.570776-2.3379 4.675799-4.675799 4.675799-7.013698 4.675799zM904.570831 383.088219h-2.3379c-63.123288-11.689498-100.52968-46.757991-112.219178-102.86758-2.3379-9.351598 4.675799-18.703196 14.027398-21.041096 9.351598-2.3379 18.703196 4.675799 21.041095 14.027398 9.351598 39.744292 37.406393 65.461187 86.502284 74.812785 9.351598 2.3379 16.365297 11.689498 14.027397 21.041096-7.013699 7.013699-14.027397 14.027397-21.041096 14.027397z" fill="#1677FF" p-id="22170"></path></svg>