<svg t="1699372091611" class="icon" viewBox="0 0 1024 1024" version="1.1" xmlns="http://www.w3.org/2000/svg" p-id="34610" width="200" height="200"><path d="M572.4 703.8H270.6c-81.6 0-151.5-61.6-159.1-140.3-3.7-44.5 10.7-86.8 40.6-119.3 29.5-32.1 71.5-50.4 115.2-50.4h14.2l31.2 2 9.8-29.4c34.9-100 126.7-164.6 233.7-164.6 138.4 0 251 112.6 251 251v8.1c0 13.7 9.6 23.3 23.3 23.3s23.3-9.6 23.3-23.3v-8.1c0-40-7.9-78.9-23.5-115.6-15-35.4-36.6-67.3-63.9-94.6-27.4-27.4-59.2-48.9-94.6-63.9-36.7-15.6-75.6-23.5-115.6-23.5-63.1 0-122.7 18.9-172.4 54.6-48 34.5-83.9 82.5-103.8 139.1h-11c-61.4 0-119.1 27-158.1 74.1-18.5 22.2-31.7 47.5-39.2 75-7.9 28.9-9 58.7-3.4 88.6 8.8 46.6 34.4 88.7 72 118.5 37 29.4 83.9 45.5 132 45.5h300.2c13.7 0 23.3-9.6 23.3-23.3-0.1-13.9-9.7-23.5-23.4-23.5z" fill="#1677FF" p-id="34611"></path><path d="M720.3 696.7c-15.9 2.5-26.8 17.5-24.3 33.4 2.5 15.9 17.5 26.8 33.4 24.3 15.9-2.5 26.8-17.5 24.3-33.4-2.3-14.4-14.7-24.7-28.8-24.7-1.6 0-3.1 0.2-4.6 0.4z" fill="#FFFFFF" p-id="34612"></path><path d="M717.1 676.1c-5.2 0.8-10.2 2.4-14.7 4.7l6.4 9.2-15.9 11.1-5.8-8.3c-0.9 1-1.8 2.1-2.6 3.2-7.9 10.8-11.1 24-9 37.2 2.1 13.2 9.2 24.8 20 32.6 10.8 7.9 24 11.1 37.2 9 13.2-2.1 24.8-9.2 32.6-20 7.9-10.8 11.1-24 9-37.2-1-6.1-3-11.8-5.9-16.9l-12.3 9.9-1.3-1.7c1.9 3.4 3.2 7.1 3.8 11.1 2.9 18.6-9.8 36.1-28.4 39-1.8 0.3-3.6 0.4-5.3 0.4-16.5 0-31.1-12-33.7-28.8-2.9-18.6 9.8-36.1 28.4-39 10.3-1.6 20.4 1.6 27.7 8l-3.4-4.2 11.8-9.5c-8.6-6.7-19.4-10.7-30.8-10.7-2.6 0.3-5.2 0.5-7.8 0.9z" fill="#1677FF" p-id="34613"></path><path d="M716.3 671.3c-6 0.9-11.6 2.8-16.8 5.5l2.9 4.1c4.6-2.3 9.5-3.9 14.7-4.7 2.6-0.4 5.2-0.6 7.8-0.6 11.4 0 22.2 3.9 30.8 10.7l3.9-3.2c-11.7-9.6-27.3-14.3-43.3-11.8zM774.2 717.8c2.1 13.2-1.1 26.4-9 37.2-7.9 10.8-19.5 17.9-32.6 20-13.2 2.1-26.4-1.1-37.2-9-10.8-7.9-17.9-19.5-20-32.6-2.1-13.2 1.1-26.4 9-37.2 0.8-1.1 1.7-2.2 2.6-3.2l-2.9-4.1c-1.3 1.4-2.5 2.9-3.7 4.5-8.6 11.9-12.2 26.4-9.9 40.9 2.3 14.5 10.1 27.2 21.9 35.9 9.5 6.9 20.7 10.6 32.2 10.6 2.9 0 5.7-0.2 8.6-0.7 14.5-2.3 27.2-10.1 35.9-21.9 8.6-11.9 12.2-26.4 9.9-40.9-1.1-7-3.5-13.5-6.9-19.2l-3.9 3.1c3 4.8 5.1 10.5 6 16.6z" fill="#1677FF" p-id="34614"></path><path d="M719.5 691.8c-18.6 2.9-31.3 20.4-28.4 39 2.6 16.8 17.2 28.8 33.7 28.8 1.8 0 3.5-0.1 5.3-0.4 18.6-2.9 31.3-20.4 28.4-39-0.6-4-1.9-7.7-3.8-11.1l-7.5-9.3c-7.3-6.3-17.3-9.6-27.7-8z m34.2 29.2c2.5 15.9-8.4 30.9-24.3 33.4s-30.9-8.4-33.4-24.3 8.4-30.9 24.3-33.4c1.5-0.2 3-0.4 4.5-0.4 14.2 0 26.6 10.3 28.9 24.7z" fill="#1677FF" p-id="34615"></path><path d="M887.4 637.5c24.7-3.9 41.7-27.1 37.8-51.8-3.5-22.3-22.9-38.3-44.8-38.3-2.3 0-4.7 0.2-7.1 0.6-24.7 3.9-41.7 27.1-37.8 51.8 4 24.6 27.2 41.5 51.9 37.7z" fill="#FFFFFF" p-id="34616"></path><path d="M820.6 587l-6.9-1.7c-0.6 5.8-0.5 11.8 0.4 17.8 1.6 10.1 5.4 19.3 10.8 27.3l13.2-10.6c-3.6-5.7-6.2-12.2-7.3-19.3-2.1-13.2 1.1-26.5 9.1-37.4 7.9-10.9 19.6-18 32.8-20.1 27.4-4.3 53.2 14.5 57.5 41.9 2.1 13.2-1.1 26.5-9.1 37.4-7.9 10.9-19.6 18-32.8 20.1-2.6 0.4-5.2 0.6-7.8 0.6-12.6 0-24.3-4.7-33.3-12.7l3.5 4.3-12.7 10c14.3 11.6 33.2 17.4 52.8 14.3 36.6-5.7 61.6-40.2 55.9-76.7-2.8-17.7-12.3-33.2-26.8-43.8-11.6-8.5-25.3-12.9-39.4-12.9-3.5 0-7 0.3-10.5 0.8-17.7 2.8-33.2 12.3-43.8 26.8-3.1 4.2-5.6 8.7-7.6 13.4l6.6 1.6-4.6 18.9z" fill="#1677FF" p-id="34617"></path><path d="M951.5 581.5c-3-19-13.2-35.7-28.8-47-15.6-11.3-34.6-15.9-53.6-13-19 3-35.7 13.2-47 28.8-3.4 4.7-6.3 9.8-8.4 15l4.8 1.2c2-4.7 4.5-9.1 7.6-13.4 10.6-14.5 26.1-24 43.8-26.8 3.5-0.6 7-0.8 10.5-0.8 14.1 0 27.8 4.4 39.4 12.9 14.5 10.6 24 26.1 26.8 43.8 5.7 36.6-19.3 71-55.9 76.7-19.6 3.1-38.5-2.7-52.8-14.3l-3.9 3.2c12.7 10.6 28.9 16.9 46.2 16.9 3.7 0 7.4-0.3 11.2-0.9 39.4-6.2 66.3-43.1 60.1-82.3zM813.7 585.3l-4.8-1.2c-0.8 6.5-0.7 13.1 0.4 19.7 1.7 11 5.9 21 11.8 29.6l3.8-3.1c-5.4-7.9-9.2-17.2-10.8-27.3-1-5.9-1.1-11.9-0.4-17.7z" fill="#1677FF" p-id="34618"></path><path d="M888.2 642.3c13.2-2.1 24.9-9.2 32.8-20.1 7.9-10.9 11.1-24.1 9.1-37.4-4.3-27.4-30.1-46.2-57.5-41.9-13.2 2.1-24.9 9.2-32.8 20.1-7.9 10.9-11.1 24.1-9.1 37.4 1.1 7.1 3.7 13.6 7.3 19.3l0.3-0.3 8.7 10.8c9 8 20.8 12.7 33.3 12.7 2.6 0 5.3-0.2 7.9-0.6z m-52.6-42.6c-3.9-24.7 13.1-48 37.8-51.8 2.4-0.4 4.7-0.6 7.1-0.6 21.9 0 41.3 16 44.8 38.3 3.9 24.7-13.1 48-37.8 51.8-24.8 3.9-48-13-51.9-37.7zM628.3 556.7c3.5-4.8 6.1-10 7.9-15.4l-11.9-3 4.6-18.8 9.9 2.5c-0.1-2-0.3-4.1-0.6-6.1-4.2-27-27.7-46.4-54.2-46.4-2.8 0-5.7 0.2-8.6 0.7-14.5 2.3-27.2 10.1-35.9 21.9-8.7 11.9-12.2 26.4-9.9 40.8 2.3 14.5 10.1 27.2 21.9 35.9 11.9 8.6 26.4 12.2 40.9 9.9 4.2-0.7 8.2-1.8 12-3.3l-8.3-11.9 3-2.1c-2.9 1.2-5.9 2-9 2.5-2.1 0.3-4.2 0.5-6.3 0.5-8.4 0-16.5-2.6-23.5-7.7-8.6-6.3-14.3-15.6-16-26.1-3.4-21.8 11.5-42.3 33.3-45.7 10.5-1.7 21.1 0.9 29.7 7.2 8.6 6.3 14.3 15.6 16 26.1 1.7 10.5-0.9 21.1-7.2 29.7-1.2 1.7-2.5 3.2-4 4.7l8.7 12.4c2.9-2.5 5.3-5.3 7.5-8.3z" fill="#1677FF" p-id="34619"></path><path d="M632.3 559.6c3.9-5.3 6.8-11.1 8.7-17.1l-4.8-1.2c-1.8 5.4-4.4 10.6-7.9 15.4-2.2 3-4.7 5.8-7.4 8.2l2.8 4.1c3.2-2.8 6.1-6 8.6-9.4zM592.5 578.6c-14.5 2.3-29-1.2-40.9-9.9-11.9-8.6-19.7-21.4-21.9-35.9-2.3-14.5 1.2-29 9.9-40.8 8.6-11.9 21.4-19.7 35.9-21.9 2.9-0.5 5.7-0.7 8.6-0.7 26.6 0 50 19.4 54.2 46.4 0.3 2 0.5 4.1 0.6 6.1l5 1.2c-0.1-2.7-0.3-5.4-0.7-8.1-5.1-32.6-35.8-55-68.4-49.8-15.8 2.5-29.6 11-39.1 23.9-9.4 12.9-13.3 28.7-10.8 44.5s11 29.6 23.9 39.1c10.4 7.6 22.6 11.5 35.1 11.5 3.1 0 6.2-0.2 9.4-0.7 4.9-0.8 9.7-2.1 14.2-4.1l-2.9-4.1c-3.9 1.5-7.9 2.7-12.1 3.3z" fill="#1677FF" p-id="34620"></path><path d="M623.5 518.1c-1.7-10.5-7.3-19.8-16-26.1-8.6-6.3-19.2-8.8-29.7-7.2-21.8 3.4-36.7 23.9-33.3 45.7 1.7 10.5 7.3 19.8 16 26.1 6.9 5 15.1 7.7 23.5 7.7 2.1 0 4.2-0.2 6.3-0.5 3.1-0.5 6.2-1.4 9-2.5l12.9-9.1 0.2 0.3c1.4-1.4 2.8-3 4-4.7 6.2-8.6 8.7-19.1 7.1-29.7zM612.3 545c-5.5 7.6-13.7 12.6-22.9 14-9.2 1.5-18.5-0.8-26.1-6.3-7.6-5.5-12.6-13.7-14-22.9-3-19.1 10.1-37.1 29.2-40.1 1.8-0.3 3.7-0.4 5.5-0.4 7.4 0 14.5 2.3 20.6 6.7 7.6 5.5 12.6 13.7 14 22.9 1.5 9.2-0.8 18.5-6.3 26.1zM603.105 564.617l7.86-5.513 90.969 129.682-7.86 5.513zM750.784 696.423l86.747-70.055 6.031 7.468-86.747 70.056zM630.2 534.7L817 581l2.3-9.3-186.8-46.3z" fill="#1677FF" p-id="34621"></path><path d="M699.5 676.8L623.8 569l-2.8-4.1-8.7-12.4-0.2-0.3-12.9 9.1-3 2.1 8.3 11.9 2.9 4.1 76.7 109.3 2.9 4.1 5.8 8.3 15.9-11.1-6.4-9.2-2.8-4z m-5.4 17.5l-91-129.7 7.8-5.5 91 129.7-7.8 5.5zM847 630.2l-8.7-10.8-0.3 0.3-13.2 10.6-3.8 3.1-61.4 49.6-3.9 3.2-11.8 9.5 3.4 4.2 7.5 9.3 1.3 1.7 12.3-9.9 3.9-3.1 61.9-50 3.9-3.2 12.5-10.1-3.6-4.4z m-90.2 73.7l-6-7.5 86.8-70.1 6 7.4-86.8 70.2zM641 542.5l167.9 41.6 4.8 1.2 6.9 1.7 4.6-18.8-6.6-1.6-4.8-1.2-170-42.1-5-1.2-9.9-2.5-4.6 18.8 11.9 3 4.8 1.1z m-8.5-17.1l186.8 46.3-2.3 9.3-186.8-46.3 2.3-9.3z" fill="#1677FF" p-id="34622"></path></svg>